<svg width="48" height="59" xmlns="http://www.w3.org/2000/svg"><g fill="none" fill-rule="evenodd"><path d="M22.378 48H6v2h17.088c.324.706.715 1.376 1.164 2H4v-4H0V0h2v46h20.041c.057.685.17 1.353.337 2zM39 34.088V0h-2v33.378c.693.178 1.362.417 2 .71zm4 2.975V4h-2v31.252a12.068 12.068 0 0 1 2 1.81z" fill="#555" fill-rule="nonzero"/><path fill="#555" d="M1 0h37v2H1z"/><path d="M7 9h2m2 0h20M7 14h2m2 0h20M7 19h2m2 0h20M7 24h2m2 0h20M7 29h2m2 0h20M7 36h2m2 0h2m6 0h2m2 0h2m-10 0h2" stroke="#555" stroke-width="2"/><g fill-rule="nonzero" fill="#555"><path d="M34 55c-5.523 0-10-4.477-10-10s4.477-10 10-10 10 4.477 10 10-4.477 10-10 10zm0-2a8 8 0 1 0 0-16 8 8 0 0 0 0 16z"/><path d="M47.414 57L40.4 49.986 38.986 51.4 46 58.414z"/></g></g></svg>