<svg width="49" height="56" xmlns="http://www.w3.org/2000/svg"><g stroke="#555" stroke-width="2" fill="none" fill-rule="evenodd"><path d="M24.51 56V37.667m4.354-32.302A4.359 4.359 0 0 1 24.51 9.73a4.359 4.359 0 0 1-4.354-4.365A4.359 4.359 0 0 1 24.51 1a4.359 4.359 0 0 1 4.354 4.365zm5.224 13.968v-.873c0-2.892-2.34-5.238-5.224-5.238h-8.708c-2.884 0-5.224 2.346-5.224 5.238v.873M9.707 56V41.159M13.19 12.35a3.488 3.488 0 0 1-3.483 3.491 3.488 3.488 0 0 1-3.483-3.492 3.488 3.488 0 0 1 3.483-3.492 3.488 3.488 0 0 1 3.483 3.492z" stroke-linejoin="round"/><path d="M14.932 56V38.54h3.483V23.698a4.359 4.359 0 0 0-4.354-4.365H5.354A4.359 4.359 0 0 0 1 23.698V38.54h3.483V56"/><path d="M39.313 56V41.159m3.483-28.809a3.488 3.488 0 0 1-3.483 3.491 3.488 3.488 0 0 1-3.483-3.492 3.488 3.488 0 0 1 3.483-3.492 3.488 3.488 0 0 1 3.483 3.492z" stroke-linejoin="round"/><path d="M44.537 56V38.54h3.483V23.698a4.359 4.359 0 0 0-4.353-4.365h-8.708a4.359 4.359 0 0 0-4.354 4.365V38.54h3.483V56"/><path d="M24.51 15.841v1.746m0 1.746v1.746m14.803.873v1.746M9.707 21.952v1.746m8.708 14.842V56m12.19-17.46V56" stroke-linejoin="round"/></g></svg>